<svg xmlns="http://www.w3.org/2000/svg" viewBox="0 0 64 64">
  <defs>
    <linearGradient id="g1" x1="0%" y1="100%" x2="100%" y2="0%">
      <stop offset="0%" stop-color="#7C3AED"/>
      <stop offset="50%" stop-color="#00F0FF"/>
      <stop offset="100%" stop-color="#39FF14"/>
    </linearGradient>
    <filter id="glow">
      <feGaussianBlur stdDeviation="2" result="blur"/>
      <feMerge><feMergeNode in="blur"/><feMergeNode in="SourceGraphic"/></feMerge>
    </filter>
  </defs>
  <!-- Geometric phoenix head - low poly -->
  <polygon points="8,24 12,8 24,2 30,28" fill="#6D28D9"/>
  <polygon points="24,2 50,20 30,28" fill="#7C3AED"/>
  <polygon points="50,20 62,32 50,38 40,30" fill="#00D4FF"/>
  <polygon points="30,28 50,20 40,30" fill="#4C1D95"/>
  <polygon points="30,28 40,30 40,44 22,58" fill="#3730A3"/>
  <polygon points="40,30 50,38 40,44" fill="#312E81"/>
  <polygon points="8,24 30,28 22,58 6,48" fill="#1E1B4B"/>
  <!-- Glowing eye -->
  <circle cx="38" cy="26" r="3.5" fill="#00F0FF" filter="url(#glow)"/>
  <circle cx="38" cy="26" r="1.5" fill="#FFFFFF"/>
</svg>
